<mxfile host="app.diagrams.net" modified="2023-05-04T15:34:50.848Z" agent="Mozilla/5.0 (Windows NT 10.0; Win64; x64) AppleWebKit/537.36 (KHTML, like Gecko) Chrome/112.0.0.0 Safari/537.36 Edg/112.0.1722.68" version="21.2.8" etag="au55ECuHH4kVmEozfnON" type="github">
  <diagram name="PÃ¡gina-1" id="7h6cBQRnGxcIhX4PBxPF">
    <mxGraphModel>
      <root>
        <mxCell id="0" />
        <mxCell id="1" parent="0" />
      </root>
    </mxGraphModel>
  </diagram>
</mxfile>
